<svg width="80" height="60" viewBox="0 0 80 60" xmlns="http://www.w3.org/2000/svg" xmlns:xlink="http://www.w3.org/1999/xlink"><title>Page 1</title><defs><path id="a" d="M79.931 59.945H0V0h79.931v59.945z"/></defs><g fill="none" fill-rule="evenodd"><mask id="b" fill="#fff"><use xlink:href="#a"/></mask><path d="M72.725 0H7.197C3.24 0 0 3.262 0 7.248v8.097h79.93V7.248C79.931 3.262 76.688 0 72.725 0zM0 52.696c0 3.986 3.24 7.25 7.197 7.25h65.529c3.962 0 7.205-3.264 7.205-7.25v-30.48H0v30.48zm65.384-3.893h5.925v-6.82h-5.925v6.82zm-7.619 0h5.922v-6.82h-5.922v6.82zm-7.302 0h5.927v-6.82h-5.927v6.82z" fill="#C6C6C6" mask="url(#b)"/></g></svg>