<svg width="21" height="24" viewBox="0 0 21 24" xmlns="http://www.w3.org/2000/svg" xmlns:xlink="http://www.w3.org/1999/xlink"><title>Group 2</title><defs><path id="a" d="M20.942 23.675H0V.073h20.942z"/></defs><g fill="none" fill-rule="evenodd"><g transform="translate(0 .052)"><mask id="b" fill="#fff"><use xlink:href="#a"/></mask><path d="M10.794 22.043a.859.859 0 0 1-.715.037c-1.908-.765-8.163-4.166-8.53-15.811a.85.85 0 0 1 .505-.809C4.1 4.552 8.38 2.523 10.125 1.692a.865.865 0 0 1 .735-.003c1.754.82 6.049 2.823 8.028 3.72a.852.852 0 0 1 .505.807c-.393 10.764-6.681 14.836-8.6 15.827m8.739-18.03A989.052 989.052 0 0 1 11.52.3a2.413 2.413 0 0 0-2.065.01c-1.74.828-6.006 2.85-8.034 3.751A2.38 2.38 0 0 0 0 6.317c.1 3.178 1.081 13.812 9.498 17.186a2.43 2.43 0 0 0 2.012-.099c2.104-1.089 9.007-5.54 9.43-17.133a2.38 2.38 0 0 0-1.41-2.258" fill="#FFC00D" mask="url(#b)"/></g><path fill="#FFC00D" d="M14.18 6.429h-1.637l-2.079 2.65-2.079-2.65H6.75l2.919 3.921v.263H7.545v1.447h2.123v1.143H7.545v1.446h2.123v3.01h1.548v-3.01h2.175v-1.446h-2.175V12.06h2.168v-1.447h-2.168v-.307z"/></g></svg>