<svg width="22" height="25" viewBox="0 0 22 25" xmlns="http://www.w3.org/2000/svg"><title>Fill 1</title><path d="M5.382 10.764a.767.767 0 0 0-.77.77c0 .426.343.769.77.769h10.764a.767.767 0 0 0 .77-.765v-.005a.77.77 0 0 0-.77-.77H5.382zm13.067 12.302H3.073a1.54 1.54 0 0 1-1.54-1.539V6.151c0-.848.691-1.539 1.54-1.539h2.309v3.073h10.764V4.612h2.308c.849 0 1.54.69 1.54 1.54v15.375a1.549 1.549 0 0 1-1.545 1.54zM8.629 3.078c0-.848.954-1.539 2.135-1.539 1.18 0 2.134.69 2.134 1.54h1.708V6.15H6.921V3.078h1.708zm7.517 0V1.54h-2.072C13.41.622 12.182 0 10.764 0c-1.418 0-2.646.622-3.31 1.54H5.381v1.538H3.073A3.073 3.073 0 0 0 0 6.151v15.376A3.073 3.073 0 0 0 3.073 24.6h15.376a3.073 3.073 0 0 0 3.073-3.073V6.151a3.065 3.065 0 0 0-3.068-3.073h-2.308zM5.382 14.612a.767.767 0 0 0-.77.77c0 .426.343.769.77.769h10.764c.426 0 .77-.343.77-.77a.767.767 0 0 0-.77-.77H5.382zm0 3.842a.767.767 0 0 0-.77.77c0 .427.343.77.77.77h10.764c.426 0 .77-.343.77-.77a.767.767 0 0 0-.77-.77H5.382z" fill="#FFC00D" fill-rule="evenodd"/></svg>