<svg width="28" height="28" viewBox="0 0 28 28" xmlns="http://www.w3.org/2000/svg"><title>Group 3</title><g fill="none" fill-rule="evenodd"><ellipse fill="#1A1D2E" cx="14" cy="14" rx="14" ry="14"/><path d="M12.714 12.714h-3.43C8.58 12.714 8 13.29 8 14c0 .715.575 1.286 1.284 1.286h3.43v3.43C12.714 19.42 13.29 20 14 20c.715 0 1.286-.575 1.286-1.284v-3.43h3.43C19.42 15.286 20 14.71 20 14c0-.715-.575-1.286-1.284-1.286h-3.43v-3.43C15.286 8.58 14.71 8 14 8c-.715 0-1.286.575-1.286 1.284v3.43z" fill="#24867F"/></g></svg>