<svg width="18" height="18" viewBox="0 0 18 18" xmlns="http://www.w3.org/2000/svg" xmlns:xlink="http://www.w3.org/1999/xlink"><title>Group 3</title><defs><path id="a" d="M0 17.947h17.947V0H0v17.947z"/></defs><g fill="none" fill-rule="evenodd"><path d="M12.1 9.415c.268 0 .484-.182.484-.406 0-.225-.216-.407-.484-.407H9.31v-.43l2.682-2.59c.175-.17.154-.426-.048-.574a.551.551 0 0 0-.684.04L8.825 7.402 6.54 5.052a.55.55 0 0 0-.682-.057c-.207.142-.238.398-.069.572L8.342 8.19v.412H5.847c-.268 0-.485.182-.485.407 0 .224.217.406.485.406h2.495v.669H5.847c-.268 0-.485.182-.485.406 0 .225.217.407.485.407h2.495v2.126c0 .224.217.406.484.406.268 0 .485-.182.485-.406v-2.126H12.1c.268 0 .484-.182.484-.407 0-.224-.216-.406-.484-.406H9.31v-.669h2.79z" fill="#FE5600"/><mask id="b" fill="#fff"><use xlink:href="#a"/></mask><path d="M17.675 6.772a.413.413 0 0 0-.8.202 8.23 8.23 0 0 1 .246 2c0 4.492-3.655 8.147-8.147 8.147-4.493 0-8.148-3.655-8.148-8.147C.826 4.48 4.48.826 8.974.826a8.08 8.08 0 0 1 3.424.752.413.413 0 0 0 .348-.749A8.898 8.898 0 0 0 8.974 0c-2.397 0-4.65.933-6.346 2.628A8.914 8.914 0 0 0 0 8.974c0 2.396.933 4.65 2.628 6.345a8.915 8.915 0 0 0 6.346 2.628c2.396 0 4.65-.933 6.345-2.628a8.915 8.915 0 0 0 2.628-6.345 9.01 9.01 0 0 0-.272-2.202z" fill="#FFF" mask="url(#b)"/><path d="M13.579 4.104h1.495V5.6c0 .169.175.306.39.306.217 0 .391-.137.391-.306V4.104h1.496c.17 0 .306-.175.306-.39 0-.216-.137-.391-.306-.391h-1.496V1.827c0-.169-.174-.306-.39-.306-.216 0-.39.137-.39.306v1.496h-1.496c-.17 0-.307.175-.307.39 0 .216.137.39.307.39z" fill="#FE5600"/></g></svg>