<svg width="23" height="20" viewBox="0 0 23 20" xmlns="http://www.w3.org/2000/svg" xmlns:xlink="http://www.w3.org/1999/xlink"><title>Page 1</title><defs><path id="a" d="M11.49 19.886H0V0h22.98v19.886z"/></defs><g fill="none" fill-rule="evenodd"><mask id="b" fill="#fff"><use xlink:href="#a"/></mask><path d="M21.04 10.485s-.446.031-.715-.05V6.789l.004.002v-.462c.003-.405-.401-.447-.401-.447H3.282s-.404.042-.4.447v.14l-.013.018.01 3.992s-.248.105-.659.129c0 0-1.336.066-1.336-1.352V2.34S.884.934 3.239.906h16.408s2.485-.09 2.45 1.199v7.189s.138 1.132-1.057 1.191zm1.943-.873V1.788C22.637.098 20.359 0 20.359 0H2.764C.085.293.002 2.082.002 2.082v7.516c.152 1.719 1.837 1.886 1.837 1.886 1.768.07 1.934-.67 1.934-.67V6.776h15.66v3.982c.056.545.677.572.677.572 2.942.573 2.873-1.718 2.873-1.718zM5.14 9.044s.023-.398.428-.396c0 0 .295-.051.437.35v9.994h10.98V9.049s.05-.4.441-.403c0 0 .373.002.438.384v10.465s-.028.349-.41.39H5.522s-.373-.027-.4-.47L5.14 9.044zM8.502 13.8a.412.412 0 0 1-.408-.418c0-.23.183-.417.408-.417h2.583v-.503a.403.403 0 0 1-.043-.109L8.647 9.8a.424.424 0 0 1 0-.59.401.401 0 0 1 .576 0l2.27 2.444L13.76 9.21a.401.401 0 0 1 .577 0 .424.424 0 0 1 0 .59l-2.395 2.555a.409.409 0 0 1-.043.11v.502h2.583c.225 0 .407.187.407.418 0 .23-.182.417-.407.417H11.9v.958h2.583c.225 0 .407.187.407.417a.412.412 0 0 1-.407.418H11.9v1.778c0 .23-.182.417-.408.417a.412.412 0 0 1-.407-.417v-1.779H8.502a.412.412 0 0 1-.408-.417c0-.23.183-.417.408-.417h2.583v-.958H8.502z" fill="#7C7C7D" mask="url(#b)"/></g></svg>