<svg width="20" height="20" viewBox="0 0 20 20" xmlns="http://www.w3.org/2000/svg"><title>Group 6</title><g stroke-width=".5" fill="none" fill-rule="evenodd"><path d="M14.696 1C17.289 1 19 2.677 19 5.304v9.392C19 17.323 17.289 19 14.696 19H5.304C2.711 19 1 17.323 1 14.696V5.304C1 2.677 2.711 1 5.304 1h9.392z" stroke="#C6C6C6" fill="#FFF"/><path d="M9.513 13.998a.445.445 0 0 1-.32-.134l-3.06-3.11a.464.464 0 0 1 0-.65.447.447 0 0 1 .639 0l2.741 2.786 5.664-5.755a.445.445 0 0 1 .638 0c.177.18.177.47 0 .65l-5.982 6.08a.448.448 0 0 1-.32.133" stroke="#26C281" fill="#26C281"/></g></svg>