<svg width="21" height="17" viewBox="0 0 21 17" xmlns="http://www.w3.org/2000/svg" xmlns:xlink="http://www.w3.org/1999/xlink"><title>Group 2</title><defs><path id="a" d="M9.991 16.903H0V0h19.983v16.903z"/></defs><g fill="none" fill-rule="evenodd"><g transform="translate(.5)"><mask id="b" fill="#fff"><use xlink:href="#a"/></mask><path d="M18.295 8.912s-.387.027-.621-.041V5.77l.003.001V5.38c.003-.344-.348-.38-.348-.38H2.854s-.351.036-.348.38v.119l-.011.015.009 3.393s-.217.09-.574.11c0 0-1.161.056-1.161-1.149V1.989S.769.794 2.817.77h14.267s2.16-.077 2.13 1.019v6.11s.12.963-.919 1.013zm1.688-.742V1.52C19.683.083 17.7 0 17.7 0H2.4C.073.25 0 1.77 0 1.77v6.388C.132 9.62 1.597 9.762 1.597 9.762c1.537.059 1.682-.57 1.682-.57V5.76h13.618v3.384c.048.464.588.487.588.487 2.558.487 2.498-1.46 2.498-1.46z" fill="#FFF" mask="url(#b)"/></g><path d="M4.275 6.06s.022-.387.416-.384c0 0 .287-.05.426.338v9.697h10.681V6.064s.05-.388.43-.39c0 0 .363.002.426.372V16.2s-.027.339-.399.38H4.646s-.363-.028-.39-.457L4.274 6.06z" fill="#FE5600"/><path d="M13.803 10.963c.264 0 .478-.183.478-.41 0-.226-.214-.41-.478-.41h-2.755V9.71l2.648-2.608c.173-.17.152-.43-.047-.578a.536.536 0 0 0-.675.04l-2.406 2.37-2.256-2.366a.535.535 0 0 0-.674-.058c-.204.143-.235.401-.068.576l2.521 2.644v.415H7.627c-.264 0-.478.183-.478.41 0 .226.214.41.478.41h2.464v.672H7.627c-.264 0-.478.184-.478.41 0 .226.214.41.478.41h2.464v2.142c0 .226.214.41.479.41.264 0 .478-.184.478-.41v-2.142h2.755c.264 0 .478-.184.478-.41 0-.226-.214-.41-.478-.41h-2.755v-.673h2.755z" fill="#FE5600"/></g></svg>