<svg width="13" height="13" viewBox="0 0 13 13" xmlns="http://www.w3.org/2000/svg"><title>Combined Shape</title><path d="M11.33 10.939c-.1 0-.2-.038-.277-.114L9.49 9.262a.39.39 0 0 1 .553-.552l1.562 1.562a.391.391 0 0 1-.276.667zm.78-4.297H9.768a.391.391 0 0 1 0-.782h2.344a.39.39 0 1 1 0 .782zM9.768 3.907a.39.39 0 0 1-.276-.667l1.562-1.562a.391.391 0 0 1 .552.552l-1.562 1.563a.389.389 0 0 1-.276.114zm-1.954 8.595a.388.388 0 0 1-.26-.101L3.757 8.986H1.563C.934 8.986 0 8.569 0 7.423V5.079c0-.628.417-1.563 1.563-1.563h2.194L7.552.1a.39.39 0 0 1 .652.291v11.72a.39.39 0 0 1-.39.39z" fill="#FFBE00" fill-rule="evenodd"/></svg>