<svg width="16" height="16" viewBox="0 0 16 16" xmlns="http://www.w3.org/2000/svg"><title>help_icon</title><g fill="#FFBE00" fill-rule="evenodd"><path d="M2.294 2.271a7.731 7.731 0 0 1 4.39-2.19 7.737 7.737 0 0 1 5.775 1.475 7.74 7.74 0 0 1 3.04 5.128c.611 4.251-2.352 8.206-6.601 8.817a7.803 7.803 0 0 1-5.146-1.05.557.557 0 0 1 .578-.952 6.68 6.68 0 0 0 4.41.9c3.641-.522 6.18-3.912 5.658-7.557a6.63 6.63 0 0 0-2.606-4.394 6.627 6.627 0 0 0-4.95-1.265 6.682 6.682 0 0 0-5.66 7.557c.137.954.468 1.846.986 2.65a.556.556 0 0 1-.935.603A7.72 7.72 0 0 1 .08 8.897a7.735 7.735 0 0 1 1.477-5.775c.227-.304.473-.588.737-.852"/><path d="M8.205 11.535a.624.624 0 0 1 .2.485.67.67 0 0 1-.2.486.69.69 0 0 1-.48.187.676.676 0 0 1-.495-.202.624.624 0 0 1-.185-.47.617.617 0 0 1 .185-.486.668.668 0 0 1 .495-.187.639.639 0 0 1 .48.187m1.7-7.894c.497.482.766 1.158.738 1.854a2.486 2.486 0 0 1-.502 1.495c-.337.373-.697.722-1.08 1.046a3.217 3.217 0 0 0-.664.748 2.006 2.006 0 0 0-.28 1.039v.389H7.31v-.374a2.408 2.408 0 0 1 .236-1.077 4.898 4.898 0 0 1 1.227-1.494c.295-.3.502-.509.613-.643a1.85 1.85 0 0 0 .429-1.144 1.92 1.92 0 0 0-.495-1.375 1.966 1.966 0 0 0-1.478-.508 1.868 1.868 0 0 0-1.61.747 2.638 2.638 0 0 0-.48 1.667h-.784a3.291 3.291 0 0 1 .739-2.243 2.732 2.732 0 0 1 2.216-.874 2.774 2.774 0 0 1 1.98.747" stroke="#FFBE00" stroke-width=".5"/></g></svg>