<svg width="23" height="23" viewBox="0 0 23 23" xmlns="http://www.w3.org/2000/svg"><title>Group 6</title><g fill="none" fill-rule="evenodd"><rect fill="#686990" width="23" height="23" rx="3"/><path d="M16.758 16.54l.013-.013.014-.014.004-.004.014-.015.01-.012.005-.006.013-.016.009-.01a.519.519 0 0 0 .005-.008l.012-.015.008-.012.005-.007.01-.016.008-.012.005-.008.008-.014a.604.604 0 0 0 .012-.022l.007-.014.008-.015.004-.008.005-.012a.755.755 0 0 0 .008-.019l.003-.006.004-.012a.79.79 0 0 0 .008-.02l.002-.006c0-.004.002-.008.003-.011a.672.672 0 0 0 .007-.022l.001-.005.003-.012a.689.689 0 0 0 .007-.027l.003-.013.004-.022v-.004l.003-.015.002-.02v-.004c.002-.006.002-.013.002-.019l.002-.017v-.024l.001-.017v-.022l-.001-.019v-.002l-.002-.018c0-.006 0-.013-.002-.02l-.003-.024-.002-.015v-.002l-.005-.024-.003-.013v-.003a.59.59 0 0 0-.007-.024l-.003-.012v-.003a.603.603 0 0 0-.008-.023l-.004-.012-.001-.004-.008-.02-.005-.014-.002-.004a.527.527 0 0 0-.008-.019l-.006-.014-.003-.005-.008-.016-.008-.016-.003-.006-.007-.013-.01-.017-.004-.006-.007-.01v-.002l-.012-.017-.004-.006-.006-.008-.003-.004-.012-.017-.004-.005-.005-.006-.005-.006-.013-.016-.004-.005-.004-.004-.008-.009-.014-.015-.015-.015-.001-.002-.015-.015h-.001l-.01-.01-.02-.018-.001-.001-3.65-3.17a1.05 1.05 0 0 0-1.339 0 .748.748 0 0 0 0 1.162l2.035 1.767H7.946c-.522 0-.946.368-.946.822 0 .454.424.822.946.822h5.84L11.748 18.6a.748.748 0 0 0 .007 1.162c.185.159.425.238.666.238.244 0 .487-.081.672-.244l3.632-3.186.01-.01.02-.016.002-.003M7.242 6.46l-.013.013-.014.014-.004.004-.014.015-.01.012-.005.006-.013.016-.009.01a.519.519 0 0 0-.005.008l-.012.015-.008.012-.005.007-.01.016-.008.012-.005.008-.008.014a.604.604 0 0 0-.008.014l-.004.008-.007.014-.008.015-.004.008-.005.012a.755.755 0 0 0-.008.019l-.003.006-.004.012a.79.79 0 0 0-.008.02l-.002.006c0 .004-.002.008-.003.011a.672.672 0 0 0-.007.022l-.001.005-.003.012a.689.689 0 0 0-.007.027l-.003.013-.004.022v.004l-.003.015-.002.02v.004c-.002.006-.002.013-.002.019L7 6.967v.062l.001.019v.002l.002.018c0 .006 0 .013.002.02l.003.024.002.015v.002l.005.024.003.013v.003a.59.59 0 0 0 .007.024l.003.012v.003a.603.603 0 0 0 .008.023l.004.012.001.004a.602.602 0 0 0 .008.02l.005.014.002.004a.527.527 0 0 0 .008.019l.006.014.003.005.008.016.008.016.003.006.007.013.01.017.004.006.007.01v.002l.012.017.004.006.006.008.003.004.012.017.004.005.005.006.005.006.013.016.004.005.004.004.008.009.014.015.015.015.001.002.015.015h.001l.01.01.02.018.001.001 3.65 3.17c.37.321.97.321 1.339 0a.748.748 0 0 0 0-1.162L10.23 7.83h5.823c.522 0 .946-.368.946-.822 0-.454-.424-.822-.946-.822h-5.84L12.252 4.4a.748.748 0 0 0-.007-1.162A1.022 1.022 0 0 0 11.578 3a1.02 1.02 0 0 0-.672.244L7.274 6.43l-.01.01-.02.016a.148.148 0 0 0-.002.003" fill="#FFF"/></g></svg>