<svg width="108" height="124" viewBox="0 0 108 124" xmlns="http://www.w3.org/2000/svg"><title>Page 1</title><path d="M15.39 66.686c3.073 0 5.452-.096 7.82.033 1.678.092 2.36-.663 2.863-2.136 1.576-4.614 2.711-9.255 2.346-14.207-.214-2.89-.028-5.809-.049-8.716-.005-.615-.121-1.228-.187-1.843l-.607-.13c-3.98 8.821-7.964 17.643-12.187 27m78.754-.033L82.318 38.61c-.192.039-.385.076-.577.114-.044.705-.125 1.41-.127 2.116-.015 3.279.184 6.571-.052 9.833-.355 4.883.726 9.474 2.356 13.979.28.771 1.084 1.856 1.721 1.91 2.58.22 5.19.092 8.504.092M54.916 55.033c7.65 0 15.304-.027 22.955.023 1.573.01 2.334-.393 2.301-2.131-.086-4.554-.072-9.11-.006-13.666.023-1.582-.63-2.058-2.14-2.055-15.378.033-30.756.036-46.135-.001-1.586-.004-2.087.618-2.068 2.126.058 4.405.107 8.815-.022 13.217-.06 2.014.689 2.546 2.61 2.524 7.5-.086 15.003-.034 22.505-.037M26.626 66.69c3.993 0 7.277.097 10.55-.035 2.18-.086 2.995.589 3.102 2.893.343 7.377 6.967 13.26 14.632 13.272 7.823.011 14.478-5.852 14.798-13.329.103-2.383 1.053-2.905 3.16-2.832 3.265.115 6.537.031 10.34.031-1.093-3.448-1.97-6.43-3.037-9.341-.164-.448-1.206-.817-1.845-.818a7172.64 7172.64 0 0 0-46.534.006c-.676.003-1.752.474-1.96.995-1.121 2.812-2.028 5.709-3.207 9.158m28.081 30.92c12.294 0 24.586-.024 36.88.028 1.742.006 2.572-.38 2.551-2.341a1381.51 1381.51 0 0 1-.007-24.85c.014-1.74-.559-2.359-2.328-2.334-5.771.08-11.547.149-17.314-.032-2.427-.076-3.331.644-3.747 3.077-1.443 8.455-9.748 14.142-18.24 12.747-6.98-1.146-12.167-6.127-13.318-13.058-.349-2.104-1.15-2.82-3.334-2.761-5.918.156-11.844.126-17.763.015-2.049-.038-2.718.613-2.693 2.67.099 7.982.11 15.97-.006 23.953-.032 2.217.575 2.958 2.889 2.937 12.143-.105 24.286-.049 36.43-.05m.076 1.452c-12.52 0-25.04.001-37.56-.002-3.165 0-3.244-.084-3.245-3.31-.004-8.882-.042-17.764.038-26.645.014-1.442.313-2.988.894-4.305 3.95-8.947 8.048-17.83 12.005-26.774.746-1.686 1.743-2.303 3.589-2.296 16.493.06 32.986.062 49.48-.001 1.891-.008 2.809.708 3.504 2.389 3.711 8.967 7.543 17.885 11.265 26.847.472 1.139.765 2.44.774 3.666.064 9.18.041 18.36.032 27.541-.003 2.704-.193 2.885-2.991 2.887-12.595.006-25.19.003-37.785.003m36.605 21.265c-.493-.598-.594-.842-.769-.915-4.739-1.99-8.112-5.466-10.886-9.669-.324-.49-1.566-.852-2.135-.634-3.717 1.427-7.48 2.014-11.43 1.286-.909-.169-1.85-.156-2.95-.24 3.055 5.468 8.009 11.428 15.8 8.798 1.639-.554 2.786-.144 3.951 1.155.628.698 1.87 1.217 2.815 1.187 1.752-.056 3.488-.573 5.604-.968m-31.039-11.874c3.692.284 7.18.818 10.651.726 2.24-.06 4.545-.818 6.647-1.68 1.423-.583 1.986-.49 2.854.788 1.543 2.27 3.201 4.523 5.147 6.448 3.03 2.999 6.82 4.525 11.222 4.577-3.82 1.946-7.851 3.105-12.076 3.408-.828.06-1.979-.758-2.546-1.5-.946-1.235-1.929-1.364-3.305-1.025-1.593.391-3.226.698-4.858.808-.829.056-1.77-.254-2.528-.648-5.107-2.658-8.514-6.911-11.208-11.902m38.613-85.826c5.858-1.45 7.984-13.498 5.24-18.57-.97 1.38-2.557 2.603-2.581 3.854-.094 4.952-.6 9.778-2.659 14.716m6.212-21.93c2.938 8.66 2.871 21.452-9.625 25.45 0-.223-.078-.464.01-.58 3.808-5 4.868-10.784 4.734-16.858-.035-1.607.251-2.751 1.56-3.864 1.265-1.072 2.128-2.614 3.32-4.147M10.674 46.345l-1.549 4.332c-3.915-.794-6.774-3.864-8.125-8.8 1.534 1.162 2.824 2.499 4.398 3.23 1.551.718 3.39.824 5.276 1.238M81.307 19.38c1.576 2.827.75 6.883-2.008 10.002-.18-1.102-.564-1.944-.374-2.629.334-1.204 1.124-2.277 1.527-3.47.391-1.155.536-2.392.855-3.903" stroke="#ABABAB" fill="#B1B1B1" fill-rule="evenodd"/></svg>