<?xml version="1.0" encoding="UTF-8"?>
<svg width="21px" height="21px" viewBox="0 0 21 21" version="1.1" xmlns="http://www.w3.org/2000/svg" xmlns:xlink="http://www.w3.org/1999/xlink">
    <!-- Generator: Sketch 42 (36781) - http://www.bohemiancoding.com/sketch -->
    <title>Group</title>
    <desc>Created with Sketch.</desc>
    <defs>
        <rect id="path-1" x="0.5" y="0.5" width="20" height="20" rx="3"></rect>
        <mask id="mask-2" maskContentUnits="userSpaceOnUse" maskUnits="objectBoundingBox" x="0" y="0" width="20" height="20" fill="white">
            <use xlink:href="#path-1"></use>
        </mask>
    </defs>
    <g id="Page-1" stroke="none" stroke-width="1" fill="none" fill-rule="evenodd">
        <g id="帮助中心" transform="translate(-20.000000, -302.000000)" stroke="#7C7C7D">
            <g id="Group" transform="translate(20.000000, 302.000000)">
                <g id="Page-1" transform="translate(6.000000, 3.000000)" stroke-width="0.3" fill="#7C7C7D">
                    <path d="M4.56404711,0.138618357 C4.67506006,0.0188599034 4.85431977,0.0180869565 4.96443708,0.136879227 L7.74020851,3.13132367 C7.85032583,3.25011594 7.84960933,3.44349758 7.73859638,3.56325604 C7.62758344,3.68301449 7.44832373,3.68378744 7.33820641,3.56499517 L4.56243499,0.570550725 C4.45231767,0.451758454 4.45303417,0.258376812 4.56404711,0.138618357" id="Fill-1"></path>
                    <path d="M4.56406503,6.5595314 C4.45305208,6.43977295 4.45233558,6.2463913 4.5624529,6.12759903 L7.33822433,3.13315459 C7.44834164,3.01436232 7.62760135,3.01513527 7.7386143,3.13489372 C7.84962724,3.25465217 7.85034374,3.44803382 7.74022643,3.56682609 L4.964455,6.56127053 C4.85433768,6.6800628 4.67507797,6.67928986 4.56406503,6.5595314" id="Fill-4"></path>
                    <path d="M7.24966027,3.3812657 C7.24966027,3.56536297 7.12543683,3.71459903 6.97219508,3.71459903 L0.277474146,3.71459903 C0.124232397,3.71459903 8.95626818e-06,3.56536297 8.95626818e-06,3.3812657 C8.95626818e-06,3.19716843 0.124232397,3.04793237 0.277474146,3.04793237 L6.97219508,3.04793237 C7.12543683,3.04793237 7.24966027,3.19716843 7.24966027,3.3812657" id="Fill-7"></path>
                </g>
                <g id="Page-1-Copy-2" transform="translate(11.000000, 14.500000) scale(-1, 1) translate(-11.000000, -14.500000) translate(7.000000, 11.000000)" stroke-width="0.3" fill="#7C7C7D">
                    <path d="M4.56404711,0.138618357 C4.67506006,0.0188599034 4.85431977,0.0180869565 4.96443708,0.136879227 L7.74020851,3.13132367 C7.85032583,3.25011594 7.84960933,3.44349758 7.73859638,3.56325604 C7.62758344,3.68301449 7.44832373,3.68378744 7.33820641,3.56499517 L4.56243499,0.570550725 C4.45231767,0.451758454 4.45303417,0.258376812 4.56404711,0.138618357" id="Fill-1"></path>
                    <path d="M4.56406503,6.5595314 C4.45305208,6.43977295 4.45233558,6.2463913 4.5624529,6.12759903 L7.33822433,3.13315459 C7.44834164,3.01436232 7.62760135,3.01513527 7.7386143,3.13489372 C7.84962724,3.25465217 7.85034374,3.44803382 7.74022643,3.56682609 L4.964455,6.56127053 C4.85433768,6.6800628 4.67507797,6.67928986 4.56406503,6.5595314" id="Fill-4"></path>
                    <path d="M7.24966027,3.3812657 C7.24966027,3.56536297 7.12543683,3.71459903 6.97219508,3.71459903 L0.277474146,3.71459903 C0.124232397,3.71459903 8.95626818e-06,3.56536297 8.95626818e-06,3.3812657 C8.95626818e-06,3.19716843 0.124232397,3.04793237 0.277474146,3.04793237 L6.97219508,3.04793237 C7.12543683,3.04793237 7.24966027,3.19716843 7.24966027,3.3812657" id="Fill-7"></path>
                </g>
                <use id="Rectangle-4" mask="url(#mask-2)" stroke-width="2" xlink:href="#path-1"></use>
            </g>
        </g>
    </g>
</svg>