<svg width="60" height="60" viewBox="0 0 60 60" xmlns="http://www.w3.org/2000/svg" xmlns:xlink="http://www.w3.org/1999/xlink"><title>Group 5</title><defs><path id="a" d="M27.899 32.967V0H0v32.967z"/></defs><g fill="none" fill-rule="evenodd"><circle cx="30" cy="30" r="30" fill="#FFF"/><g transform="translate(16 14)"><mask id="b" fill="#fff"><use xlink:href="#a"/></mask><path d="M18.481 20.174c-.202-.067-1.48-.647-.682-3.094h-.011c2.081-2.16 3.672-5.637 3.672-9.06 0-5.262-3.473-8.02-7.51-8.02S6.46 2.758 6.46 8.02c0 3.437 1.582 6.928 3.676 9.083.815 2.157-.644 2.958-.95 3.07C4.96 21.714 0 24.523 0 27.294v1.04c0 3.776 7.266 4.634 13.99 4.634 6.735 0 13.909-.858 13.909-4.635v-1.038c0-2.856-4.983-5.641-9.418-7.12" fill="#686990" mask="url(#b)"/></g></g></svg>