<svg width="21" height="24" viewBox="0 0 21 24" xmlns="http://www.w3.org/2000/svg"><title>Fill 1</title><path d="M10.407 13.932c-3.247 0-5.879-2.808-5.879-6.27 0-3.464 2.632-6.271 5.879-6.271 3.247 0 5.879 2.807 5.879 6.27 0 3.463-2.632 6.27-5.88 6.27zm10.344 9.196a.766.766 0 0 0-.033-.223c-.599-3.958-3.23-7.21-6.741-8.554 2.246-1.309 3.765-3.815 3.765-6.692C17.742 3.429 14.46 0 10.41 0S3.076 3.429 3.076 7.659c0 2.865 1.507 5.363 3.738 6.676-3.578 1.35-6.25 4.679-6.807 8.72l.006.005a.659.659 0 0 0-.012.126l.007.065c0 .387.338.701.754.701s.754-.314.754-.7l-.006-.059c.623-4.286 4.067-7.616 8.313-7.9a7.102 7.102 0 0 0 1.174 0c4.189.28 7.597 3.523 8.288 7.725a.771.771 0 0 0-.008.11l.006.07c0 .416.33.753.738.753a.745.745 0 0 0 .738-.753l-.007-.07z" fill="#686990" fill-rule="evenodd"/></svg>