<svg width="21" height="24" viewBox="0 0 21 24" xmlns="http://www.w3.org/2000/svg" xmlns:xlink="http://www.w3.org/1999/xlink"><title>Page 1</title><defs><path id="a" d="M20.942 23.727H0V.125h20.942z"/></defs><g fill="none" fill-rule="evenodd"><mask id="b" fill="#fff"><use xlink:href="#a"/></mask><path d="M10.794 22.095a.859.859 0 0 1-.715.037c-1.908-.765-8.163-4.166-8.53-15.811a.85.85 0 0 1 .505-.809C4.1 4.604 8.38 2.574 10.125 1.744a.865.865 0 0 1 .735-.003c1.754.82 6.049 2.822 8.028 3.719a.852.852 0 0 1 .505.808c-.393 10.764-6.681 14.835-8.6 15.827m8.739-18.03C17.56 3.17 13.272 1.17 11.52.353A2.413 2.413 0 0 0 9.455.36c-1.74.827-6.006 2.85-8.034 3.751A2.38 2.38 0 0 0 0 6.368C.101 9.547 1.082 20.18 9.5 23.554a2.43 2.43 0 0 0 2.012-.099c2.104-1.088 9.007-5.54 9.43-17.132a2.38 2.38 0 0 0-1.41-2.258" fill="#686990" mask="url(#b)"/><path fill="#686990" mask="url(#b)" d="M14.18 6.429h-1.637l-2.079 2.65-2.079-2.65H6.75l2.919 3.921v.263H7.545v1.447h2.123v1.143H7.545v1.446h2.123v3.01h1.548v-3.01h2.175v-1.446h-2.175V12.06h2.168v-1.447h-2.168v-.307z"/></g></svg>