<svg width="25" height="24" viewBox="0 0 25 24" xmlns="http://www.w3.org/2000/svg"><title>Page 1</title><path d="M22.62 11.23a.956.956 0 0 1-.953.953h-8.944v-4.85h8.944c.525 0 .954.429.954.953v2.943zm-9.897 11.254v-8.888h8.202v7.992a.897.897 0 0 1-.896.896h-7.306zM3.11 13.596h8.201v8.888H4.005a.897.897 0 0 1-.896-.896v-7.992zm-1.696-5.31c0-.524.43-.953.954-.953h8.943v4.85H2.367a.956.956 0 0 1-.954-.954V8.286zm9.897-4.628v2.247H9.067A2.25 2.25 0 0 1 6.818 3.66a2.249 2.249 0 0 1 2.246-2.246 2.249 2.249 0 0 1 2.246 2.245zm5.906.001a2.249 2.249 0 0 1-2.244 2.246h-2.249V3.662a2.25 2.25 0 0 1 2.247-2.249 2.249 2.249 0 0 1 2.246 2.246zm.63 2.26a3.64 3.64 0 0 0 .783-2.26A3.657 3.657 0 1 0 12.017 1.5 3.656 3.656 0 0 0 9.064 0a3.663 3.663 0 0 0-3.659 3.66c0 .852.293 1.637.783 2.26H2.367A2.37 2.37 0 0 0 0 8.285v2.943a2.37 2.37 0 0 0 1.696 2.27v8.09a2.311 2.311 0 0 0 2.309 2.308h7.736a.703.703 0 0 0 .552 0h7.736a2.311 2.311 0 0 0 2.309-2.309v-8.09a2.37 2.37 0 0 0 1.696-2.269V8.286a2.37 2.37 0 0 0-2.367-2.367h-3.822z" fill="#FFC00D" fill-rule="evenodd"/></svg>